<?xml version="1.0" encoding="UTF-8"?>
<svg version="1.1" xmlns="http://www.w3.org/2000/svg" width="639" height="160">
<path d="M0 0 C10.12090546 7.07626944 13.57702572 16.59018407 15.8046875 28.33984375 C17.24839725 36.93867915 17.85672914 45.64244975 18.40844727 54.3371582 C18.55154148 56.56577803 18.70947765 58.7934725 18.87866211 61.02026367 C19.65840093 71.8691365 19.79946575 82.68890445 19.79858398 93.5637207 C19.80078053 96.58884561 19.81904365 99.6136105 19.83789062 102.63867188 C19.93916515 137.26429186 19.93916515 137.26429186 11.8203125 146.5859375 C4.78734903 153.12917818 -1.66634279 155.07836396 -11.07421875 154.96484375 C-11.95762939 154.95654541 -12.84104004 154.94824707 -13.7512207 154.93969727 C-25.14663699 154.6465441 -34.13773025 151.585236 -42.38671875 143.52734375 C-50.1658104 134.9159213 -55.409794 124.98137235 -59.796875 114.3125 C-61.15114422 111.38787252 -61.15114422 111.38787252 -63.80737305 110.15917969 C-66.80931593 108.25998554 -67.6878247 106.7900954 -69.24609375 103.6328125 C-69.72175781 102.67697266 -70.19742188 101.72113281 -70.6875 100.73632812 C-71.16574219 99.73923828 -71.64398438 98.74214844 -72.13671875 97.71484375 C-72.63042969 96.72935547 -73.12414062 95.74386719 -73.6328125 94.72851562 C-79.16102088 83.45248512 -79.16102088 83.45248512 -77.82421875 78.40234375 C-77.21203931 76.48465697 -77.21203931 76.48465697 -78.01171875 74.46484375 C-79.28867953 72.34352022 -79.28867953 72.34352022 -81.76171875 71.33984375 C-85.85620316 68.51269975 -87.19336141 65.30077311 -88.38671875 60.52734375 C-90.09681408 43.7373169 -84.67604181 33.80795671 -74.2890625 20.92578125 C-57.07778048 0.74703681 -25.03480615 -15.44700805 0 0 Z M-59.5078125 37.04296875 C-63.46600219 42.27666655 -66.62234888 47.81188506 -66.38671875 54.52734375 C-65.08598819 56.98236501 -63.59634952 59.14425849 -61.94140625 61.375 C-60.38671875 63.52734375 -60.38671875 63.52734375 -58.76171875 67.02734375 C-58.30796875 67.85234375 -57.85421875 68.67734375 -57.38671875 69.52734375 C-56.0607777 69.88896404 -54.72733418 70.22462414 -53.38671875 70.52734375 C-52.6937728 72.18325683 -52.03575813 73.85373385 -51.38671875 75.52734375 C-50.68080249 76.88185607 -49.95777231 78.22751651 -49.22265625 79.56640625 C-41.73421296 93.4187433 -41.73421296 93.4187433 -42.5859375 101.60546875 C-41.98765967 110.38021028 -35.56989652 120.63641377 -30.38671875 127.52734375 C-24.87964606 132.06425856 -18.63288501 135.14346879 -11.38671875 134.52734375 C-8.70944378 133.8140735 -6.83971217 132.90715255 -4.38671875 131.52734375 C3.8522256 115.04945506 -2.3648252 82.9149497 -3.76171875 64.65234375 C-3.85640442 63.40679214 -3.85640442 63.40679214 -3.95300293 62.13607788 C-4.6243957 53.45625111 -5.41189766 44.78967471 -6.37109375 36.13671875 C-6.44443939 35.44039337 -6.51778503 34.74406799 -6.59335327 34.02664185 C-7.29494471 27.99358881 -8.59466042 23.11303255 -13.18359375 18.86328125 C-27.83555295 9.97858259 -50.43165127 26.32692866 -59.5078125 37.04296875 Z " fill="#F3008A" transform="translate(88.38671875,5.47265625)"/>
<path d="M0 0 C0.78552246 0.01047363 1.57104492 0.02094727 2.38037109 0.03173828 C3.23115234 0.03818359 4.08193359 0.04462891 4.95849609 0.05126953 C6.29267578 0.07640625 6.29267578 0.07640625 7.65380859 0.10205078 C8.99958984 0.11558594 8.99958984 0.11558594 10.37255859 0.12939453 C12.5915877 0.15300122 14.81002078 0.18762485 17.02880859 0.22705078 C19.84398929 5.68483405 22.28784197 11.15071609 24.48193359 16.88330078 C24.78701843 17.67103882 25.09210327 18.45877686 25.40643311 19.27038574 C26.36756887 21.75453872 27.32327675 24.24073762 28.27880859 26.72705078 C28.9346988 28.42510646 29.59094557 30.12302447 30.24755859 31.82080078 C31.84543059 35.95463896 33.4384426 40.09031941 35.02880859 44.22705078 C35.05386475 42.92968994 35.0789209 41.6323291 35.10473633 40.2956543 C35.19862611 35.50046222 35.29889109 30.70542128 35.40112305 25.91040039 C35.44454193 23.83166021 35.48621171 21.75288275 35.52612305 19.67407227 C35.58365781 16.69291933 35.64739978 13.71195529 35.71240234 10.73095703 C35.72911484 9.79554581 35.74582733 8.86013458 35.76304626 7.89637756 C35.78299149 7.03556076 35.80293671 6.17474396 35.82348633 5.2878418 C35.83903061 4.52617203 35.85457489 3.76450226 35.87059021 2.97975159 C36.02880859 1.22705078 36.02880859 1.22705078 37.02880859 0.22705078 C39.85297242 0.10041987 42.64175653 0.0418453 45.46630859 0.03955078 C46.25585938 0.02730469 47.04541016 0.01505859 47.85888672 0.00244141 C49.91688294 -0.00282201 51.97442869 0.10498793 54.02880859 0.22705078 C56.57252241 2.7707646 56.26845154 4.39033645 56.28875732 7.85899353 C56.28313782 8.64504471 56.27751831 9.43109589 56.27172852 10.2409668 C56.27362686 11.06870605 56.27552521 11.89644531 56.27748108 12.74926758 C56.28119465 15.49325952 56.27047728 18.2369885 56.25927734 20.98095703 C56.25808586 22.88142363 56.25763231 24.78189083 56.25788879 26.68235779 C56.25632297 30.66791462 56.24802518 34.65338175 56.23461914 38.63891602 C56.21761763 43.75952601 56.21380506 48.88003743 56.21456432 54.00067234 C56.21429302 57.92531788 56.20881845 61.84994167 56.20156288 65.77458 C56.19837057 67.66331759 56.1964075 69.55205766 56.19566917 71.44079781 C56.19351219 74.07475145 56.1847823 76.7085984 56.17407227 79.3425293 C56.17452545 80.13060471 56.17497864 80.91868011 56.17544556 81.7306366 C56.14328318 87.1125762 56.14328318 87.1125762 55.02880859 88.22705078 C53.54009 88.3137451 52.0473636 88.33408572 50.55615234 88.32470703 C49.65703125 88.32148437 48.75791016 88.31826172 47.83154297 88.31494141 C46.41325195 88.30237305 46.41325195 88.30237305 44.96630859 88.28955078 C44.01691406 88.28503906 43.06751953 88.28052734 42.08935547 88.27587891 C39.7357749 88.26405187 37.38233278 88.24673172 35.02880859 88.22705078 C32.33131956 82.97566529 29.92663791 77.7294505 27.79443359 72.22705078 C27.5115448 71.50590088 27.22865601 70.78475098 26.93719482 70.04174805 C26.04756165 67.77153483 25.16309769 65.49935018 24.27880859 63.22705078 C23.67107871 61.67353113 23.06300873 60.12014447 22.45458984 58.56689453 C20.97540009 54.78847009 19.50083786 51.0082703 18.02880859 47.22705078 C18.00375244 48.39800293 17.97869629 49.56895508 17.95288086 50.77539062 C17.85887156 55.11030456 17.75863519 59.44505582 17.65649414 63.77978516 C17.61312071 65.6576762 17.57144741 67.5356073 17.53149414 69.41357422 C17.47384983 72.10933518 17.41013879 74.80489405 17.34521484 77.50048828 C17.3201461 78.76462051 17.3201461 78.76462051 17.29457092 80.05429077 C17.1426803 85.99930737 17.1426803 85.99930737 16.02880859 88.22705078 C9.75880859 88.22705078 3.48880859 88.22705078 -2.97119141 88.22705078 C-4.5366581 85.09611739 -4.11846465 81.75796933 -4.11645508 78.32080078 C-4.11981369 77.50442139 -4.1231723 76.68804199 -4.12663269 75.84692383 C-4.13615506 73.14028413 -4.13808633 70.4337062 -4.13916016 67.72705078 C-4.14237141 65.85139948 -4.14573538 63.97574843 -4.14924622 62.10009766 C-4.15524041 58.16584695 -4.15708578 54.23161823 -4.15649414 50.29736328 C-4.1563924 45.24632075 -4.17005523 40.19541843 -4.18726635 35.14440918 C-4.19836184 31.27033841 -4.20041412 27.39630183 -4.19988441 23.5222168 C-4.20106783 21.6594189 -4.20550972 19.79662022 -4.21321678 17.93383789 C-4.22296907 15.33355762 -4.22015783 12.73358557 -4.21411133 10.13330078 C-4.21973083 9.35817139 -4.22535034 8.58304199 -4.23114014 7.78442383 C-4.18779694 0.48236948 -4.18779694 0.48236948 0 0 Z " fill="#F2F2F2" transform="translate(214.97119140625,22.77294921875)"/>
<path d="M0 0 C4.83801979 -0.07463717 9.67569804 -0.12883014 14.51416016 -0.16479492 C16.15712326 -0.17980136 17.80004686 -0.20021312 19.44287109 -0.22631836 C21.81618042 -0.26306359 24.18895625 -0.27980772 26.5625 -0.29296875 C27.28679199 -0.30845261 28.01108398 -0.32393646 28.75732422 -0.33988953 C36.41250977 -0.34236711 42.99153306 2.16710268 49 7 C55.12801479 14.08955341 56.3414232 19.08796886 56.29296875 28.46875 C55.79726791 34.44359747 53.28822973 38.06765541 50 43 C50.40992188 43.4846875 50.81984375 43.969375 51.2421875 44.46875 C56.53484018 51.05291123 58.32936127 56.05354042 57.875 64.5 C56.83487166 72.96126877 53.67778218 77.9147499 47.29296875 83.45703125 C41.21047459 87.55002136 36.20764947 88.43988775 29.0390625 88.328125 C28.2078891 88.32625183 27.3767157 88.32437866 26.52035522 88.32244873 C24.7773635 88.31576534 23.03438582 88.30192552 21.29150391 88.28125 C18.61216434 88.24984957 15.93341233 88.24025004 13.25390625 88.234375 C11.55728442 88.22521391 9.86066861 88.21484101 8.1640625 88.203125 C6.95793808 88.19675018 6.95793808 88.19675018 5.72744751 88.19024658 C0.11722249 88.11722249 0.11722249 88.11722249 -1 87 C-1.1004346 84.36327189 -1.13616846 81.75271184 -1.12939453 79.11547852 C-1.13114685 78.28949158 -1.13289917 77.46350464 -1.13470459 76.61248779 C-1.13912443 73.86793956 -1.13618439 71.1234552 -1.1328125 68.37890625 C-1.13348557 66.47940559 -1.13445561 64.57990502 -1.13571167 62.68040466 C-1.13718887 58.69309675 -1.1350336 54.70581118 -1.13037109 50.71850586 C-1.12467766 45.59909311 -1.12795023 40.47973282 -1.13394356 35.360322 C-1.13755186 31.43563947 -1.13640927 27.51096944 -1.13381577 23.58628654 C-1.13314704 21.69837373 -1.13397302 19.8104598 -1.13629532 17.92254829 C-1.13882581 15.28630684 -1.13497543 12.65015107 -1.12939453 10.01391602 C-1.13141876 9.22786484 -1.13344299 8.44181366 -1.13552856 7.63194275 C-1.11426335 2.22852669 -1.11426335 2.22852669 0 0 Z M19 18 C19 23.28 19 28.56 19 34 C27.07557784 34.71905153 27.07557784 34.71905153 34.3125 31.9375 C36.30095019 29.04074166 36.30095019 29.04074166 36 25.375 C35.05456241 22.18414813 34.63628553 20.89812558 32 19 C28.14854957 17.07427479 23.19956748 17.95116782 19 18 Z M19 52 C19 57.61 19 63.22 19 69 C21.0625 69.0825 23.125 69.165 25.25 69.25 C26.41015625 69.29640625 27.5703125 69.3428125 28.765625 69.390625 C32.05973736 69.26971575 32.05973736 69.26971575 34.36328125 67.19921875 C36.65840669 64.11531512 36.93305736 61.81573054 37 58 C35.65437601 55.05244268 34.91445456 53.45722728 32 52 C27.66396021 51.8606671 23.33919329 51.95745889 19 52 Z " fill="#F6F6F6" transform="translate(314,23)"/>
<path d="M0 0 C8.43599383 6.65248562 11.27142572 15.6436923 12.59765625 26.14453125 C12.71520012 27.91342316 12.79280468 29.68508699 12.84765625 31.45703125 C12.86812012 32.09237793 12.88858398 32.72772461 12.90966797 33.38232422 C13.7348432 63.17728787 13.7348432 63.17728787 5.84765625 75.45703125 C5.29078125 76.38515625 4.73390625 77.31328125 4.16015625 78.26953125 C-3.59326287 85.60384664 -12.95462152 86.84340263 -23.1328125 86.66015625 C-31.62188746 86.33810946 -37.05610933 83.56371499 -43.20703125 77.69140625 C-51.49934695 68.16689907 -51.50570387 54.71096876 -51.46801758 42.74487305 C-51.46486434 40.65815568 -51.48837301 38.57287073 -51.51367188 36.48632812 C-51.57265743 24.21170577 -50.61104192 12.01556015 -42.15234375 2.45703125 C-31.45150395 -8.2169894 -12.04123879 -8.30677905 0 0 Z M-27.21484375 17.76953125 C-30.32638386 22.08553851 -30.32462941 25.81637523 -30.35546875 30.94140625 C-30.36116882 31.67522522 -30.3668689 32.40904419 -30.3727417 33.1651001 C-30.38218243 34.71845055 -30.388722 36.27182095 -30.39257812 37.82519531 C-30.40225181 40.18460778 -30.43326925 42.54313682 -30.46484375 44.90234375 C-30.47137764 46.41535944 -30.47662659 47.92838133 -30.48046875 49.44140625 C-30.49281555 50.13957458 -30.50516235 50.83774292 -30.5178833 51.55706787 C-30.49512852 56.64085221 -29.46319204 60.02428956 -27.15234375 64.45703125 C-23.46669107 67.05866843 -19.55300523 66.67218304 -15.2421875 66.0625 C-12.88345921 65.54362591 -12.88345921 65.54362591 -10.65234375 63.20703125 C-6.99589373 56.50353954 -7.93177975 48.63226105 -7.90234375 41.20703125 C-7.88171875 39.92183594 -7.86109375 38.63664062 -7.83984375 37.3125 C-7.73710579 27.0218593 -7.73710579 27.0218593 -11.15234375 17.45703125 C-16.34957665 13.99220932 -22.22272006 13.99996847 -27.21484375 17.76953125 Z " fill="#F2F2F2" transform="translate(187.15234375,26.54296875)"/>
<path d="M0 0 C0.91120605 0.01047363 1.82241211 0.02094727 2.76123047 0.03173828 C3.74736328 0.03818359 4.73349609 0.04462891 5.74951172 0.05126953 C7.29832031 0.07640625 7.29832031 0.07640625 8.87841797 0.10205078 C9.91869141 0.11107422 10.95896484 0.12009766 12.03076172 0.12939453 C14.60520889 0.15301331 17.17920009 0.18594929 19.75341797 0.22705078 C21.80757357 4.82020623 23.45839192 9.29198327 24.80639648 14.15283203 C24.98893982 14.80585297 25.17148315 15.4588739 25.35955811 16.13168335 C25.95507696 18.26639062 26.54373591 20.40292328 27.13232422 22.53955078 C27.548798 24.03747368 27.96571116 25.53527447 28.38304138 27.03295898 C29.47648383 30.96142625 30.56413936 34.89147229 31.6505127 38.82189941 C32.7537022 42.80945083 33.86210657 46.7955515 34.97021484 50.78173828 C36.21745252 55.26931456 37.4641697 59.75702949 38.70692444 64.24584961 C38.99157814 65.27375107 38.99157814 65.27375107 39.28198242 66.32241821 C39.79215082 68.16515714 40.30198034 70.00798988 40.81178284 71.85083008 C41.45959788 74.17356261 42.14944671 76.48484864 42.87364197 78.78491211 C43.75341797 82.22705078 43.75341797 82.22705078 43.75341797 88.22705078 C37.15341797 88.22705078 30.55341797 88.22705078 23.75341797 88.22705078 C20.75341797 81.22705078 20.75341797 81.22705078 18.75341797 72.22705078 C11.82341797 72.22705078 4.89341797 72.22705078 -2.24658203 72.22705078 C-3.56658203 77.50705078 -4.88658203 82.78705078 -6.24658203 88.22705078 C-9.55913529 88.25388515 -12.87147386 88.27380858 -16.18408203 88.28955078 C-17.12960937 88.29792969 -18.07513672 88.30630859 -19.04931641 88.31494141 C-20.39799805 88.31977539 -20.39799805 88.31977539 -21.77392578 88.32470703 C-22.60657959 88.32994385 -23.4392334 88.33518066 -24.29711914 88.34057617 C-26.24658203 88.22705078 -26.24658203 88.22705078 -27.24658203 87.22705078 C-26.77431321 81.72651354 -25.67868537 76.58505769 -24.14526367 71.28222656 C-23.93375168 70.533246 -23.72223969 69.78426544 -23.50431824 69.0125885 C-22.81108409 66.56410809 -22.10927058 64.11819058 -21.40673828 61.67236328 C-20.91938534 59.96232286 -20.4323656 58.25218744 -19.94566345 56.54196167 C-18.92820468 52.97199648 -17.90642061 49.40330541 -16.8815918 45.83544922 C-15.5671696 41.25790165 -14.26415147 36.67719767 -12.96436405 32.09547615 C-11.96280765 28.57005265 -10.95504708 25.04642627 -9.94540215 21.52331161 C-9.46218741 19.83413966 -8.98097429 18.14439379 -8.50178719 16.45407486 C-7.83329493 14.09934586 -7.15644298 11.74718203 -6.47729492 9.39550781 C-6.28034027 8.69525986 -6.08338562 7.9950119 -5.88046265 7.27354431 C-3.87298527 0.3914232 -3.87298527 0.3914232 0 0 Z M7.75341797 27.22705078 C5.77341797 35.47705078 3.79341797 43.72705078 1.75341797 52.22705078 C6.04341797 52.22705078 10.33341797 52.22705078 14.75341797 52.22705078 C14.1311069 49.37227427 13.50565261 46.51824597 12.87841797 43.66455078 C12.70439453 42.8646875 12.53037109 42.06482422 12.35107422 41.24072266 C11.30898194 36.51271137 10.13610074 31.86713486 8.75341797 27.22705078 C8.42341797 27.22705078 8.09341797 27.22705078 7.75341797 27.22705078 Z " fill="#F3F3F3" transform="translate(533.24658203125,22.77294921875)"/>
<path d="M0 0 C0.84525742 0.00142502 1.69051483 0.00285004 2.56138611 0.00431824 C3.51900345 0.00124161 4.47662079 -0.00183502 5.46325684 -0.00500488 C6.49973862 0.00218063 7.5362204 0.00936615 8.60411072 0.01676941 C9.66431931 0.01722763 10.72452789 0.01768585 11.81686401 0.01815796 C14.06049212 0.02118245 16.30411809 0.0290746 18.54771423 0.04142761 C21.99562456 0.05968083 25.44326651 0.06193737 28.89122009 0.06169128 C31.06635264 0.0666064 33.24148336 0.07243469 35.41661072 0.07926941 C36.45511673 0.08038223 37.49362274 0.08149506 38.56359863 0.0826416 C39.51806381 0.08902145 40.47252899 0.09540131 41.45591736 0.10197449 C42.30037918 0.10578629 43.144841 0.10959808 44.01489258 0.11352539 C45.94395447 0.24723816 45.94395447 0.24723816 46.94395447 1.24723816 C47.04232657 2.57767441 47.07474039 3.9131716 47.07676697 5.24723816 C47.07870056 6.45380066 47.07870056 6.45380066 47.08067322 7.68473816 C47.07680603 8.53036316 47.07293884 9.37598816 47.06895447 10.24723816 C47.07475525 11.51567566 47.07475525 11.51567566 47.08067322 12.80973816 C47.07938416 13.61411316 47.07809509 14.41848816 47.07676697 15.24723816 C47.07563904 15.98973816 47.07451111 16.73223816 47.073349 17.49723816 C46.94395447 19.24723816 46.94395447 19.24723816 45.94395447 20.24723816 C43.7983662 20.33499421 41.64991026 20.35419035 39.50254822 20.34489441 C38.19737244 20.34167175 36.89219666 20.3384491 35.54747009 20.33512878 C34.15879757 20.32677217 32.7701257 20.31830721 31.38145447 20.30973816 C29.98887791 20.30472482 28.59629965 20.30016162 27.20372009 20.29606628 C23.78377996 20.28423258 20.36386197 20.26629647 16.94395447 20.24723816 C16.94395447 24.53723816 16.94395447 28.82723816 16.94395447 33.24723816 C18.86981384 33.22403503 20.79567322 33.20083191 22.77989197 33.17692566 C25.29290894 33.1581718 27.80593008 33.13997119 30.31895447 33.12223816 C32.22547791 33.09710144 32.22547791 33.09710144 34.17051697 33.07145691 C35.98809509 33.06178894 35.98809509 33.06178894 37.84239197 33.05192566 C38.96307068 33.04145203 40.08374939 33.03097839 41.23838806 33.02018738 C43.94395447 33.24723816 43.94395447 33.24723816 45.94395447 35.24723816 C46.11574499 38.13855993 46.17624917 40.92165881 46.13145447 43.80973816 C46.13080994 44.60315613 46.13016541 45.3965741 46.12950134 46.21403503 C46.08420969 52.10698294 46.08420969 52.10698294 44.94395447 53.24723816 C42.8713337 53.33490928 40.79575153 53.35419689 38.72129822 53.34489441 C37.46123962 53.34167175 36.20118103 53.3384491 34.90293884 53.33512878 C33.56244338 53.32677219 32.22194859 53.31830723 30.88145447 53.30973816 C29.53705505 53.30472476 28.19265387 53.30016158 26.84825134 53.29606628 C23.54680014 53.28423313 20.24537187 53.26629702 16.94395447 53.24723816 C16.94395447 58.52723816 16.94395447 63.80723816 16.94395447 69.24723816 C26.84395447 69.24723816 36.74395447 69.24723816 46.94395447 69.24723816 C48.46110285 72.28153493 48.08759363 75.42325483 48.06895447 78.74723816 C48.07475525 79.78171082 48.07475525 79.78171082 48.08067322 80.83708191 C48.07062093 85.99390523 48.07062093 85.99390523 46.94395447 88.24723816 C30.44395447 88.24723816 13.94395447 88.24723816 -3.05604553 88.24723816 C-4.62151223 85.11630476 -4.20331877 81.7781567 -4.2013092 78.34098816 C-4.20466782 77.52460876 -4.20802643 76.70822937 -4.21148682 75.86711121 C-4.22100919 73.16047151 -4.22294045 70.45389357 -4.22401428 67.74723816 C-4.22722554 65.87158685 -4.23058951 63.9959358 -4.23410034 62.12028503 C-4.24009453 58.18603433 -4.2419399 54.25180561 -4.24134827 50.31755066 C-4.24124653 45.26650813 -4.25490935 40.21560581 -4.27212048 35.16459656 C-4.28321597 31.29052579 -4.28526825 27.41648921 -4.28473854 23.54240417 C-4.28592196 21.67960628 -4.29036384 19.8168076 -4.29807091 17.95402527 C-4.3078232 15.353745 -4.30501196 12.75377295 -4.29896545 10.15348816 C-4.30458496 9.37835876 -4.31020447 8.60322937 -4.31599426 7.80461121 C-4.27271775 0.51379157 -4.27271775 0.51379157 0 0 Z " fill="#F6F6F6" transform="translate(388.05604553222656,22.752761840820313)"/>
<path d="M0 0 C0.82886719 -0.02900391 1.65773438 -0.05800781 2.51171875 -0.08789062 C3.30964844 -0.09626953 4.10757813 -0.10464844 4.9296875 -0.11328125 C5.66171387 -0.12786377 6.39374023 -0.14244629 7.14794922 -0.1574707 C9.125 0.3125 9.125 0.3125 10.70483398 1.90454102 C12.47681743 4.90902318 13.78315502 8.02395398 15.04296875 11.265625 C15.43613029 12.25595734 15.43613029 12.25595734 15.8372345 13.26629639 C16.66804643 15.36282153 17.49037459 17.46255542 18.3125 19.5625 C18.87639514 20.98980391 19.44084238 22.41688982 20.00585938 23.84375 C21.38531114 27.3308419 22.75716719 30.82083504 24.125 34.3125 C24.54386475 33.31806885 24.96272949 32.3236377 25.39428711 31.29907227 C26.94423799 27.62111148 28.49738329 23.944507 30.05151367 20.26831055 C30.72459179 18.67493098 31.3967949 17.0811815 32.06811523 15.48706055 C33.03140903 13.20003756 33.99780867 10.91434934 34.96484375 8.62890625 C35.26591537 7.91223282 35.566987 7.19555939 35.87718201 6.45716858 C38.01112829 1.42637171 38.01112829 1.42637171 39.125 0.3125 C40.45543625 0.2141279 41.79093344 0.18171408 43.125 0.1796875 C43.929375 0.17839844 44.73375 0.17710938 45.5625 0.17578125 C46.408125 0.17964844 47.25375 0.18351562 48.125 0.1875 C49.3934375 0.18169922 49.3934375 0.18169922 50.6875 0.17578125 C51.491875 0.17707031 52.29625 0.17835937 53.125 0.1796875 C53.8675 0.18081543 54.61 0.18194336 55.375 0.18310547 C57.125 0.3125 57.125 0.3125 58.125 1.3125 C58.43036292 5.64140899 57.8946232 8.53642841 56.02954102 12.43041992 C55.57229141 13.40391891 55.11504181 14.37741791 54.64393616 15.38041687 C54.14397629 16.42405899 53.64401642 17.46770111 53.12890625 18.54296875 C52.08313928 20.81476804 51.03959613 23.08759206 49.99804688 25.36132812 C48.36266246 28.90567246 46.71545171 32.44173337 45.02709961 35.96118164 C37.05846558 52.65007321 33.42367394 66.5829309 34.14683533 85.16181946 C34.125 87.3125 34.125 87.3125 33.125 88.3125 C31.79456375 88.4108721 30.45906656 88.44328592 29.125 88.4453125 C28.320625 88.44660156 27.51625 88.44789062 26.6875 88.44921875 C25.841875 88.44535156 24.99625 88.44148438 24.125 88.4375 C23.279375 88.44136719 22.43375 88.44523437 21.5625 88.44921875 C20.758125 88.44792969 19.95375 88.44664063 19.125 88.4453125 C18.3825 88.44418457 17.64 88.44305664 16.875 88.44189453 C15.125 88.3125 15.125 88.3125 14.125 87.3125 C14.10798478 85.64353402 14.14992565 83.97393256 14.21508789 82.30615234 C14.54696287 63.20142295 9.59166451 49.06307864 1.5625 31.9375 C-0.08909884 28.32651644 -1.71444901 24.70383388 -3.33909607 21.08065796 C-4.34277148 18.85366082 -5.36041833 16.63289174 -6.39393616 14.41958618 C-6.85118576 13.42599091 -7.30843536 12.43239563 -7.77954102 11.40869141 C-8.18511734 10.5419278 -8.59069366 9.67516418 -9.00856018 8.78213501 C-9.94461572 6.11407257 -10.11698657 4.11926936 -9.875 1.3125 C-7.70696761 -0.85553239 -2.99537831 0.03461531 0 0 Z " fill="#F3F3F3" transform="translate(580.875,22.6875)"/>
<path d="M0 0 C0.804375 -0.00128906 1.60875 -0.00257812 2.4375 -0.00390625 C3.283125 -0.00003906 4.12875 0.00382812 5 0.0078125 C6.2684375 0.00201172 6.2684375 0.00201172 7.5625 -0.00390625 C8.366875 -0.00261719 9.17125 -0.00132813 10 0 C10.7425 0.00112793 11.485 0.00225586 12.25 0.00341797 C14 0.1328125 14 0.1328125 15 1.1328125 C15.09417773 3.21900272 15.11742878 5.30841727 15.11352539 7.39672852 C15.11367142 8.05036377 15.11381744 8.70399902 15.1139679 9.37744141 C15.11326883 11.54723378 15.10547678 13.71694129 15.09765625 15.88671875 C15.09579205 17.38744561 15.09436816 18.88817307 15.09336853 20.38890076 C15.08954352 24.34599476 15.0797134 28.30305228 15.06866455 32.26013184 C15.05665533 37.00413 15.05204811 41.74814035 15.04621124 46.49214935 C15.03650162 53.70572914 15.01734498 60.91922881 15 68.1328125 C24.9 68.1328125 34.8 68.1328125 45 68.1328125 C46.64838944 71.42959138 46.14272738 75.07597294 46.125 78.6953125 C46.13080078 79.88543945 46.13080078 79.88543945 46.13671875 81.09960938 C46.12663067 87.00618183 46.12663067 87.00618183 45 88.1328125 C43.4706537 88.23120464 41.93680434 88.26079789 40.40429688 88.26220703 C38.93772644 88.26693527 38.93772644 88.26693527 37.44152832 88.27175903 C36.37801147 88.2697348 35.31449463 88.26771057 34.21875 88.265625 C32.59302063 88.26706009 32.59302063 88.26706009 30.93444824 88.26852417 C28.6377761 88.26920615 26.34110205 88.26735061 24.04443359 88.26318359 C20.51525572 88.25783562 16.98620513 88.263128 13.45703125 88.26953125 C11.23177055 88.26887047 9.00650993 88.26758932 6.78125 88.265625 C5.71773315 88.26764923 4.65421631 88.26967346 3.55847168 88.27175903 C2.58075806 88.26860687 1.60304443 88.26545471 0.59570312 88.26220703 C-0.26953979 88.26141144 -1.13478271 88.26061584 -2.02624512 88.25979614 C-4 88.1328125 -4 88.1328125 -5 87.1328125 C-5.10045053 84.46031183 -5.13616649 81.81362669 -5.12939453 79.140625 C-5.13114685 78.3032782 -5.13289917 77.4659314 -5.13470459 76.60321045 C-5.13912401 73.82139036 -5.1361848 71.03963329 -5.1328125 68.2578125 C-5.13348551 66.33349597 -5.13445552 64.40917952 -5.13571167 62.48486328 C-5.13718877 58.44628085 -5.13503371 54.4077205 -5.13037109 50.36914062 C-5.1246738 45.18012739 -5.12795274 39.99116587 -5.13394356 34.80215454 C-5.13754886 30.8269003 -5.13641073 26.85165841 -5.13381577 22.87640381 C-5.13314641 20.9625447 -5.13397522 19.04868448 -5.13629532 17.13482666 C-5.13882133 14.464854 -5.13498198 11.7949663 -5.12939453 9.125 C-5.13141876 8.32600281 -5.13344299 7.52700562 -5.13552856 6.70379639 C-5.10943261 0.00776172 -5.10943261 0.00776172 0 0 Z " fill="#F4F4F4" transform="translate(454,22.8671875)"/>
<path d="M0 0 C3.43183321 1.1543439 4.1037121 2.61101672 5.828125 5.7421875 C6.57835937 7.06863281 6.57835937 7.06863281 7.34375 8.421875 C8.578125 10.8671875 8.578125 10.8671875 9.578125 13.8671875 C10.19655273 14.15924072 10.81498047 14.45129395 11.45214844 14.75219727 C15.84225538 17.05463392 17.60849091 22.55923905 19.828125 26.8046875 C20.65957031 28.29838867 20.65957031 28.29838867 21.5078125 29.82226562 C24.76402002 36.00184172 25.93543345 40.32840883 25.53466797 47.27563477 C25.60833305 51.66863944 27.47861138 55.05779793 29.515625 58.8671875 C30.25478257 60.32507687 30.99309978 61.78339268 31.73046875 63.2421875 C32.06038818 63.86867188 32.39030762 64.49515625 32.73022461 65.140625 C34.45136468 68.64534789 34.67235037 69.58451139 33.390625 73.4296875 C31.578125 76.8671875 31.578125 76.8671875 29.828125 78.3046875 C26.04237154 79.25112587 22.12819268 79.64222134 18.578125 77.8671875 C18.248125 78.5271875 17.918125 79.1871875 17.578125 79.8671875 C13.43316003 73.3557709 10.10496226 66.79477145 7.16796875 59.65234375 C5.81369953 56.72771627 5.81369953 56.72771627 3.1574707 55.49902344 C0.15552782 53.59982929 -0.72298095 52.12993915 -2.28125 48.97265625 C-2.75691406 48.01681641 -3.23257812 47.06097656 -3.72265625 46.07617188 C-4.20089844 45.07908203 -4.67914063 44.08199219 -5.171875 43.0546875 C-5.66558594 42.06919922 -6.15929688 41.08371094 -6.66796875 40.06835938 C-12.20176291 28.78093539 -12.20176291 28.78093539 -10.859375 23.765625 C-10.2445584 21.09776009 -11.15331717 19.87073343 -12.421875 17.4921875 C-13.73466705 14.65785556 -14.42577458 12.82741178 -14.734375 9.6796875 C-12.47912031 4.84699888 -5.51859576 -0.30263267 0 0 Z " fill="#060B0D" transform="translate(21.421875,60.1328125)"/>
<path d="M0 0 C4.22930713 1.86046509 5.80546309 7.0855063 7.8293457 11.01220703 C8.34432617 11.95064453 8.85930664 12.88908203 9.38989258 13.85595703 C11.59486939 18.07109342 12.9889136 21.05253001 13.1496582 25.85595703 C11.76008871 29.57425333 10.56407298 30.45234867 7.0793457 32.26220703 C5.73549805 32.98537109 5.73549805 32.98537109 4.36450195 33.72314453 C3.58977539 34.10728516 2.81504883 34.49142578 2.0168457 34.88720703 C1.0268457 35.38220703 1.0268457 35.38220703 0.0168457 35.88720703 C-2.8581543 36.26220703 -2.8581543 36.26220703 -5.9831543 35.88720703 C-10.05816697 31.74511596 -12.29115592 26.58142508 -14.7331543 21.38720703 C-15.14436523 20.54544922 -15.55557617 19.70369141 -15.97924805 18.83642578 C-16.56125977 17.60859375 -16.56125977 17.60859375 -17.1550293 16.35595703 C-17.68241699 15.24897461 -17.68241699 15.24897461 -18.22045898 14.11962891 C-19.08369218 11.59293097 -19.1196014 9.53917895 -18.9831543 6.88720703 C-18.25870117 6.71705078 -17.53424805 6.54689453 -16.7878418 6.37158203 C-10.30605075 4.82999934 -10.30605075 4.82999934 -4.5456543 1.63720703 C-1.9831543 -0.11279297 -1.9831543 -0.11279297 0 0 Z " fill="#00B4E7" transform="translate(31.983154296875,78.11279296875)"/>
<path d="M0 0 C2.64 0 5.28 0 8 0 C9.32 3.63 10.64 7.26 12 11 C14.15266842 8.84733158 14.93474462 7.15226256 16.125 4.375 C16.47820312 3.55773437 16.83140625 2.74046875 17.1953125 1.8984375 C17.46085937 1.27195312 17.72640625 0.64546875 18 0 C20.31 0 22.62 0 25 0 C25 7.59 25 15.18 25 23 C23.35 23 21.7 23 20 23 C19.34 20.69 18.68 18.38 18 16 C17.01 18.31 16.02 20.62 15 23 C13.35 23 11.7 23 10 23 C9.01 20.69 8.02 18.38 7 16 C6.67 18.31 6.34 20.62 6 23 C4.02 23 2.04 23 0 23 C0 15.41 0 7.82 0 0 Z " fill="#DADADA" transform="translate(335,125)"/>
<path d="M0 0 C3 1 3 1 4.07495117 2.68652344 C4.55411987 3.76208496 4.55411987 3.76208496 5.04296875 4.859375 C5.39423828 5.64570312 5.74550781 6.43203125 6.10742188 7.2421875 C6.64206055 8.48355469 6.64206055 8.48355469 7.1875 9.75 C7.55552734 10.56210938 7.92355469 11.37421875 8.30273438 12.2109375 C10.10968468 16.32769997 11.39226865 19.42273605 11 24 C8.68744419 26.68256474 7.06918719 26.98867846 3.5625 27.5625 C-0.47517773 26.92497194 -1.32823816 25.89741154 -3.77124023 22.77124023 C-5.75882404 19.90616563 -7.30629774 16.88875261 -8.8125 13.75 C-9.12380859 13.12609375 -9.43511719 12.5021875 -9.75585938 11.859375 C-12 7.28231456 -12 7.28231456 -12 5 C-11.30132813 4.72285156 -10.60265625 4.44570312 -9.8828125 4.16015625 C-8.97273438 3.79792969 -8.06265625 3.43570313 -7.125 3.0625 C-6.22007813 2.70285156 -5.31515625 2.34320313 -4.3828125 1.97265625 C-2.03862333 1.05098738 -2.03862333 1.05098738 0 0 Z " fill="#F5F5F5" transform="translate(42,110)"/>
<path d="M0 0 C2.31 0 4.62 0 7 0 C8.98 3.63 10.96 7.26 13 11 C13.33 7.37 13.66 3.74 14 0 C15.65 0 17.3 0 19 0 C20.62200515 1.62200515 20.1299075 3.42023031 20.1328125 5.65625 C20.13474609 7.06583984 20.13474609 7.06583984 20.13671875 8.50390625 C20.13285156 9.49261719 20.12898437 10.48132813 20.125 11.5 C20.13080078 12.98306641 20.13080078 12.98306641 20.13671875 14.49609375 C20.13542969 15.43582031 20.13414062 16.37554687 20.1328125 17.34375 C20.13168457 18.21193359 20.13055664 19.08011719 20.12939453 19.97460938 C20 22 20 22 19 23 C16.66702567 23.04092937 14.33294775 23.04241723 12 23 C10.35 20.03 8.7 17.06 7 14 C6.855625 15.299375 6.71125 16.59875 6.5625 17.9375 C6.125 21.875 6.125 21.875 5 23 C3.35 23 1.7 23 0 23 C0 15.41 0 7.82 0 0 Z " fill="#D6D6D6" transform="translate(529,125)"/>
<path d="M0 0 C1.24394531 -0.04898438 2.48789062 -0.09796875 3.76953125 -0.1484375 C7.1875 0.375 7.1875 0.375 9.65625 2.69921875 C11.59520543 6.08744444 11.0935704 7.66834837 10.1875 11.375 C10.5175 12.035 10.8475 12.695 11.1875 13.375 C11.5625 16.25 11.5625 16.25 11.1875 19.375 C8.42869753 22.2416886 6.8411639 23.29836883 2.85546875 23.765625 C1.70691406 23.71921875 0.55835938 23.6728125 -0.625 23.625 C-1.78644531 23.58890625 -2.94789063 23.5528125 -4.14453125 23.515625 C-5.02496094 23.46921875 -5.90539062 23.4228125 -6.8125 23.375 C-8.00469354 20.99061291 -7.94166022 19.49843998 -7.9453125 16.83984375 C-7.94660156 15.94845703 -7.94789063 15.05707031 -7.94921875 14.13867188 C-7.94535156 13.20603516 -7.94148438 12.27339844 -7.9375 11.3125 C-7.94136719 10.37599609 -7.94523437 9.43949219 -7.94921875 8.47460938 C-7.94792969 7.58451172 -7.94664062 6.69441406 -7.9453125 5.77734375 C-7.94418457 4.95741943 -7.94305664 4.13749512 -7.94189453 3.29272461 C-7.6453747 -1.10192305 -3.5803778 0.09587005 0 0 Z M-1.8125 5.375 C-1.8125 6.365 -1.8125 7.355 -1.8125 8.375 C0.4975 8.375 2.8075 8.375 5.1875 8.375 C4.8575 7.385 4.5275 6.395 4.1875 5.375 C2.2075 5.375 0.2275 5.375 -1.8125 5.375 Z M-1.8125 14.375 C-1.8125 15.365 -1.8125 16.355 -1.8125 17.375 C0.4975 17.375 2.8075 17.375 5.1875 17.375 C5.1875 16.385 5.1875 15.395 5.1875 14.375 C2.8775 14.375 0.5675 14.375 -1.8125 14.375 Z " fill="#D5D5D5" transform="translate(415.8125,124.625)"/>
<path d="M0 0 C2.5625 1.8125 2.5625 1.8125 4 4 C4 5.32 4 6.64 4 8 C2.02 8 0.04 8 -2 8 C-2 7.34 -2 6.68 -2 6 C-6.34184202 6.18464366 -6.34184202 6.18464366 -10 8 C-10.33338596 11.45812169 -10.33338596 11.45812169 -10 15 C-6.77208445 17.1519437 -5.71599191 17.20086443 -2 17 C-2 16.34 -2 15.68 -2 15 C-3.65 15 -5.3 15 -7 15 C-7 13.02 -7 11.04 -7 9 C-5.18757948 8.97312721 -3.37504767 8.95366285 -1.5625 8.9375 C-0.55316406 8.92589844 0.45617187 8.91429687 1.49609375 8.90234375 C4 9 4 9 5 10 C4.84626693 14.61199197 4.57852275 17.10422284 2.0625 21 C-1.70519094 23.46053286 -4.18936582 23.71134917 -8.62109375 23.5 C-12.23397926 22.74064147 -13.85628906 20.90438257 -16 18 C-17.85110583 14.29778834 -17.46454795 10.04093083 -17 6 C-12.86811778 -1.08322666 -7.51126766 -1.91571781 0 0 Z " fill="#D0D0D0" transform="translate(613,125)"/>
<path d="M0 0 C3.3125 1.6875 3.3125 1.6875 6 4 C6.875 6.75 6.875 6.75 7 9 C4.6875 9.6875 4.6875 9.6875 2 10 C1 9 0 8 -1 7 C-4.31818985 7.24205349 -4.31818985 7.24205349 -7 9 C-7.16666667 12.5 -7.16666667 12.5 -7 16 C-5.87465895 17.35618499 -5.87465895 17.35618499 -2.9375 17.0625 C-1.4834375 17.0315625 -1.4834375 17.0315625 0 17 C0.33 16.34 0.66 15.68 1 15 C2.98 15 4.96 15 7 15 C6.67788008 17.89907925 6.10951881 19.82381756 4.5625 22.3125 C0.56757753 24.9433026 -3.36390763 24.89271034 -8 24 C-10.82424288 21.80977082 -12.41508603 20.16982793 -14 17 C-14.51436888 12.91444146 -14.92098732 8.78152373 -12.98828125 5.04296875 C-9.24427114 0.42198329 -5.78078193 -0.56674333 0 0 Z " fill="#CECECE" transform="translate(165,124)"/>
<path d="M0 0 C1.17441535 2.10016623 2.33964012 4.20458755 3.5 6.3125 C3.83386719 6.90740234 4.16773437 7.50230469 4.51171875 8.11523438 C6.06825114 10.95828844 7 12.70660988 7 16 C5.61217515 16.8466034 4.21430603 17.67675339 2.8125 18.5 C2.03519531 18.9640625 1.25789063 19.428125 0.45703125 19.90625 C-2.32788599 21.14595879 -3.98975418 21.48600344 -7 21 C-10.0739405 17.94158445 -11.69224839 13.8260701 -13.1875 9.8125 C-13 7 -13 7 -10.3125 4.25 C-6.88362986 1.78153099 -4.31651889 0 0 0 Z " fill="#F6F6F6" transform="translate(22,62)"/>
<path d="M0 0 C1.98 0 3.96 0 6 0 C6 5.61 6 11.22 6 17 C8.97 17 11.94 17 15 17 C15 18.98 15 20.96 15 23 C10.05 23 5.1 23 0 23 C0 15.41 0 7.82 0 0 Z " fill="#D6D6D6" transform="translate(219,125)"/>
<path d="M0 0 C3 1 3 1 5 4 C7.56282742 4.72965366 7.56282742 4.72965366 10 5 C7 7 7 7 3 7 C4.44524873 13.76110612 7.16449496 19.85427564 10.25 26 C10.60827881 26.754021 10.96655762 27.50804199 11.33569336 28.28491211 C13.36175983 32.30369775 13.36175983 32.30369775 16.85742188 34.94140625 C18.98373057 35.59766151 18.98373057 35.59766151 22 36 C21.01 36.495 21.01 36.495 20 37 C20.28875 37.53109375 20.5775 38.0621875 20.875 38.609375 C21.431875 39.66898438 21.431875 39.66898438 22 40.75 C22.37125 41.44609375 22.7425 42.1421875 23.125 42.859375 C24 45 24 45 24 49 C23.34 49 22.68 49 22 49 C21.69707031 48.31292969 21.39414062 47.62585938 21.08203125 46.91796875 C20.66308594 46.01691406 20.24414062 45.11585937 19.8125 44.1875 C19.40644531 43.29417969 19.00039063 42.40085938 18.58203125 41.48046875 C17.17996245 38.84939898 17.17996245 38.84939898 14.57983398 37.65087891 C11.588492 35.73666915 10.69864394 34.26224489 9.140625 31.10546875 C8.66496094 30.14962891 8.18929688 29.19378906 7.69921875 28.20898438 C7.22097656 27.21189453 6.74273437 26.21480469 6.25 25.1875 C5.75628906 24.20201172 5.26257813 23.21652344 4.75390625 22.20117188 C-0.82119699 10.8294887 -0.82119699 10.8294887 1 4 C0.62092718 1.81296615 0.62092718 1.81296615 0 0 Z " fill="#04090B" transform="translate(10,78)"/>
<path d="M0 0 C1.65 0 3.3 0 5 0 C5 7.59 5 15.18 5 23 C3.35 23 1.7 23 0 23 C-1.62200515 21.37799485 -1.1299075 19.57976969 -1.1328125 17.34375 C-1.13410156 16.40402344 -1.13539063 15.46429688 -1.13671875 14.49609375 C-1.13285156 13.50738281 -1.12898438 12.51867187 -1.125 11.5 C-1.12886719 10.51128906 -1.13273437 9.52257812 -1.13671875 8.50390625 C-1.13542969 7.56417969 -1.13414062 6.62445313 -1.1328125 5.65625 C-1.13168457 4.78806641 -1.13055664 3.91988281 -1.12939453 3.02539062 C-1 1 -1 1 0 0 Z " fill="#D2D2D2" transform="translate(475,125)"/>
<path d="M0 0 C1.65 0 3.3 0 5 0 C6.62200515 1.62200515 6.1299075 3.42023031 6.1328125 5.65625 C6.13410156 6.59597656 6.13539063 7.53570312 6.13671875 8.50390625 C6.13285156 9.49261719 6.12898438 10.48132813 6.125 11.5 C6.12886719 12.48871094 6.13273437 13.47742188 6.13671875 14.49609375 C6.13542969 15.43582031 6.13414062 16.37554687 6.1328125 17.34375 C6.13168457 18.21193359 6.13055664 19.08011719 6.12939453 19.97460938 C6 22 6 22 5 23 C3.35 23 1.7 23 0 23 C0 15.41 0 7.82 0 0 Z " fill="#F4F4F4" transform="translate(281,125)"/>
<path d="M0 0 C3.69914001 1.23304667 4.02784959 2.19377948 5.8125 5.5625 C7.49348652 9.10729937 8.41280375 11.54907415 7.625 15.4375 C6 19 6 19 3.8125 21 C0.37145042 22.22348429 -2.37236678 22.27378364 -6 22 C-6.66 21.67 -7.32 21.34 -8 21 C-8.33 21.66 -8.66 22.32 -9 23 C-10.03877263 21.4493684 -11.05542555 19.88390319 -12.0625 18.3125 C-12.63097656 17.44238281 -13.19945312 16.57226562 -13.78515625 15.67578125 C-15.19442012 12.57177563 -15.00772958 11.1959424 -14 8 C-11.51112616 11.23553599 -9.26366839 14.60449741 -7 18 C-5.83697846 19.38528649 -5.83697846 19.38528649 -2.625 19.1875 C1.09675391 19.30453853 1.09675391 19.30453853 4 17 C3.52778878 11.52234989 2.62316044 7.90416952 0 3 C0 2.01 0 1.02 0 0 Z " fill="#360922" transform="translate(48,117)"/>
<path d="M0 0 C-0.77085938 0.40992188 -1.54171875 0.81984375 -2.3359375 1.2421875 C-3.33882812 1.78101563 -4.34171875 2.31984375 -5.375 2.875 C-6.87160156 3.67550781 -6.87160156 3.67550781 -8.3984375 4.4921875 C-11.05348395 5.8820138 -11.05348395 5.8820138 -13 8 C-12.66083005 11.18819752 -12.01406317 13.95781049 -11 17 C-11.99 17 -12.98 17 -14 17 C-15.367355 14.26529 -15.99204908 12.12456444 -16.1875 9.0625 C-13.89581104 3.1523548 -6.19714699 -1.8591441 0 0 Z " fill="#280F1C" transform="translate(23,61)"/>
<path d="M0 0 C0.99 0.33 1.98 0.66 3 1 C2.34 1.66 1.68 2.32 1 3 C0.67087115 4.89611525 0.67087115 4.89611525 0.68115234 7.08251953 C0.66128265 7.92324005 0.64141296 8.76396057 0.62094116 9.63015747 C0.60938995 10.53853363 0.59783875 11.44690979 0.5859375 12.3828125 C0.56657135 13.31221649 0.5472052 14.24162048 0.5272522 15.19918823 C0.46736315 18.1743648 0.4210339 21.14957988 0.375 24.125 C0.33682879 26.13934 0.29777757 28.15366354 0.2578125 30.16796875 C0.161654 35.11184575 0.0776576 40.05579917 0 45 C-0.33 45 -0.66 45 -1 45 C-1.02527124 38.75204325 -1.04283344 32.50409959 -1.05493164 26.25610352 C-1.05997298 24.12881986 -1.06680591 22.00153969 -1.07543945 19.87426758 C-1.08751379 16.82372174 -1.09323014 13.77322155 -1.09765625 10.72265625 C-1.10281754 9.76537125 -1.10797882 8.80808624 -1.11329651 7.8217926 C-1.11337204 6.94095505 -1.11344757 6.06011749 -1.11352539 5.15258789 C-1.115746 4.37315323 -1.11796661 3.59371857 -1.12025452 2.79066467 C-1 1 -1 1 0 0 Z " fill="#DFDFDF" transform="translate(252,23)"/>
<path d="M0 0 C1.78616627 2.32201615 3.33778231 4.58238329 4.8125 7.125 C7.33813589 10.44440717 9.00132142 11.09120941 13 12 C10 14 10 14 7.8125 13.625 C7.214375 13.41875 6.61625 13.2125 6 13 C5.67 13.66 5.34 14.32 5 15 C3.96122737 13.4493684 2.94457445 11.88390319 1.9375 10.3125 C1.36902344 9.44238281 0.80054688 8.57226562 0.21484375 7.67578125 C-1.19442012 4.57177563 -1.00772958 3.1959424 0 0 Z " fill="#4A1332" transform="translate(34,125)"/>
<path d="M0 0 C2.0625 0.4375 2.0625 0.4375 4 1 C4.5625 2.9375 4.5625 2.9375 5 5 C4 6 4 6 1.4375 6.0625 C0.2309375 6.0315625 0.2309375 6.0315625 -1 6 C-1.042721 4.33388095 -1.04063832 2.66617115 -1 1 C-0.67 0.67 -0.34 0.34 0 0 Z " fill="#171717" transform="translate(44,127)"/>
<path d="M0 0 C0.66 0.33 1.32 0.66 2 1 C-0.97 3.97 -3.94 6.94 -7 10 C-7 6.04435836 -5.59478606 4.89133304 -3 2 C-2.01 1.34 -1.02 0.68 0 0 Z " fill="#AAAAAA" transform="translate(149,26)"/>
<path d="M0 0 C0.33 0 0.66 0 1 0 C1.3125 2.3125 1.3125 2.3125 1 5 C-2.28889579 7.72508509 -4.78287443 8.36146791 -9 8 C-6 6 -6 6 -3.375 4.5625 C-0.70953007 3.15982726 -0.70953007 3.15982726 0 0 Z " fill="#23101A" transform="translate(53,131)"/>
<path d="M0 0 C0.66 0.33 1.32 0.66 2 1 C0.02 3.31 -1.96 5.62 -4 8 C-4.99 7.67 -5.98 7.34 -7 7 C-4.69 4.69 -2.38 2.38 0 0 Z " fill="#A0005D" transform="translate(22,18)"/>
<path d="M0 0 C-1 3 -1 3 -3.9375 4.6875 C-7 6 -7 6 -9 6 C-9 5.34 -9 4.68 -9 4 C-2.25 0 -2.25 0 0 0 Z " fill="#0F1F24" transform="translate(29,78)"/>
</svg>
